<svg width="32.000000" height="30.000000" viewBox="0 0 32 30" fill="none" xmlns="http://www.w3.org/2000/svg" xmlns:xlink="http://www.w3.org/1999/xlink">
	<desc>
			Created with Pixso.
	</desc>
	<defs>
		<clipPath id="clip918_30374">
			<rect id="style=stroke" width="32.000000" height="30.000000" fill="white" fill-opacity="0"/>
		</clipPath>
	</defs>
	<g clip-path="url(#clip918_30374)">
		<path id="vector (Stroke)" d="M15.99 27.55C16.54 27.55 16.99 27.13 16.99 26.61L16.99 3.49C16.99 2.97 16.54 2.55 15.99 2.55C15.43 2.55 14.99 2.97 14.99 3.49L14.99 26.61C14.99 27.13 15.43 27.55 15.99 27.55Z" fill="#2BC155" fill-opacity="1.000000" fill-rule="evenodd"/>
		<path id="vector (Stroke)" d="M5.95 12.27C6.34 12.64 6.97 12.64 7.36 12.27L15.75 4.41C15.88 4.29 16.09 4.29 16.22 4.41L24.61 12.27C25 12.64 25.64 12.64 26.03 12.27C26.42 11.91 26.42 11.31 26.03 10.95L17.64 3.08C16.72 2.23 15.25 2.23 14.34 3.08L5.95 10.95C5.55 11.31 5.55 11.91 5.95 12.27Z" fill="#2BC155" fill-opacity="1.000000" fill-rule="evenodd"/>
	</g>
</svg>
