<svg width="24.000000" height="24.000000" viewBox="0 0 24 24" fill="none" xmlns="http://www.w3.org/2000/svg" xmlns:xlink="http://www.w3.org/1999/xlink">
	<desc>
			Created with Pixso.
	</desc>
	<defs>
		<clipPath id="clip419_77771">
			<rect id="连线" width="24.000000" height="24.000000" fill="white" fill-opacity="0"/>
		</clipPath>
	</defs>
	<g clip-path="url(#clip419_77771)">
		<path id="path" d="M4 1L20 1C22 1 23 2 23 4L23 20C23 22 22 23 20 23L4 23C2 23 1 22 1 20L1 4C1 2 2 1 4 1Z" fill="#2BC155" fill-opacity="1.000000" fill-rule="nonzero"/>
		<path id="path" d="M13.65 5.65C13.77 5.57 13.88 5.49 14 5.42C14.12 5.35 14.25 5.29 14.37 5.24C14.5 5.18 14.63 5.13 14.76 5.09C14.89 5.04 15.02 5 15.16 4.97C15.29 4.94 15.43 4.92 15.56 4.9C15.7 4.88 15.84 4.87 15.98 4.87C16.12 4.86 16.25 4.87 16.39 4.88C16.53 4.89 16.67 4.9 16.8 4.92C16.94 4.95 17.07 4.98 17.21 5.01C17.34 5.05 17.47 5.09 17.6 5.14C17.73 5.19 17.86 5.24 17.98 5.3C18.11 5.36 18.23 5.43 18.35 5.5C18.46 5.58 18.58 5.66 18.69 5.74C18.8 5.82 18.9 5.91 19 6.01C19.1 6.1 19.2 6.2 19.29 6.3C19.38 6.41 19.47 6.51 19.55 6.63C19.63 6.74 19.71 6.85 19.78 6.97C19.85 7.09 19.91 7.22 19.97 7.34C20.03 7.47 20.08 7.59 20.12 7.73C20.17 7.86 20.21 7.99 20.24 8.12C20.27 8.26 20.3 8.39 20.32 8.53C20.33 8.67 20.35 8.8 20.35 8.94C20.36 9.08 20.36 9.22 20.35 9.36C20.34 9.5 20.33 9.63 20.31 9.77C20.28 9.91 20.26 10.04 20.22 10.17C20.19 10.31 20.15 10.44 20.1 10.57C20.05 10.7 20 10.83 19.94 10.95C19.88 11.08 19.81 11.2 19.74 11.32C19.67 11.44 19.59 11.55 19.51 11.66C19.43 11.77 19.34 11.88 19.25 11.98C19.15 12.08 19.06 12.18 18.95 12.27C18.85 12.36 18.74 12.45 18.63 12.53L18.53 12.61L16.08 14.32C16.04 14.35 16 14.37 15.96 14.39C15.91 14.41 15.87 14.43 15.82 14.44C15.78 14.45 15.73 14.46 15.68 14.46C15.63 14.46 15.58 14.46 15.54 14.45C15.49 14.45 15.44 14.43 15.4 14.42C15.35 14.4 15.31 14.38 15.27 14.36C15.23 14.33 15.19 14.31 15.15 14.27C15.12 14.24 15.08 14.21 15.05 14.17C15.03 14.13 15 14.09 14.98 14.05C14.96 14.01 14.94 13.96 14.93 13.92C14.91 13.87 14.9 13.82 14.9 13.77C14.9 13.73 14.9 13.68 14.9 13.63C14.91 13.58 14.92 13.54 14.93 13.49C14.94 13.45 14.96 13.4 14.99 13.36C15.01 13.32 15.03 13.28 15.06 13.24C15.09 13.2 15.13 13.17 15.16 13.14L15.22 13.09L17.67 11.38C17.74 11.33 17.81 11.27 17.88 11.22C17.95 11.16 18.01 11.1 18.07 11.03C18.13 10.97 18.19 10.9 18.25 10.83C18.3 10.76 18.35 10.69 18.4 10.62C18.45 10.54 18.49 10.46 18.53 10.39C18.58 10.31 18.61 10.23 18.64 10.14C18.68 10.06 18.71 9.98 18.73 9.89C18.76 9.81 18.78 9.72 18.79 9.63C18.81 9.54 18.82 9.46 18.83 9.37C18.84 9.28 18.84 9.19 18.84 9.1C18.84 9.01 18.83 8.93 18.82 8.84C18.81 8.75 18.8 8.66 18.78 8.57C18.76 8.49 18.74 8.4 18.72 8.32C18.69 8.23 18.66 8.15 18.62 8.07C18.59 7.98 18.55 7.9 18.51 7.83C18.47 7.75 18.42 7.67 18.37 7.6C18.32 7.52 18.27 7.45 18.21 7.38C18.16 7.31 18.1 7.25 18.04 7.19C17.97 7.12 17.91 7.06 17.84 7.01C17.77 6.95 17.7 6.9 17.62 6.85C17.55 6.8 17.48 6.75 17.4 6.71C17.32 6.67 17.24 6.63 17.16 6.59C17.07 6.56 16.99 6.53 16.91 6.5C16.82 6.48 16.74 6.45 16.65 6.44C16.56 6.42 16.47 6.4 16.39 6.4C16.3 6.39 16.21 6.38 16.12 6.38C16.03 6.38 15.94 6.38 15.85 6.39C15.77 6.4 15.68 6.41 15.59 6.42C15.5 6.44 15.42 6.46 15.33 6.49C15.25 6.51 15.16 6.54 15.08 6.57C15 6.6 14.92 6.64 14.84 6.68C14.76 6.72 14.68 6.77 14.61 6.81L14.51 6.87L12.06 8.59C12.02 8.62 11.98 8.64 11.94 8.66C11.9 8.68 11.85 8.69 11.8 8.71C11.76 8.72 11.71 8.72 11.66 8.73C11.62 8.73 11.57 8.72 11.52 8.72C11.47 8.71 11.43 8.7 11.38 8.68C11.34 8.67 11.29 8.65 11.25 8.62C11.21 8.6 11.17 8.57 11.14 8.54C11.1 8.51 11.07 8.47 11.04 8.43C11.01 8.4 10.99 8.36 10.96 8.31C10.94 8.27 10.93 8.23 10.91 8.18C10.9 8.14 10.89 8.09 10.89 8.04C10.88 7.99 10.88 7.95 10.89 7.9C10.89 7.85 10.9 7.8 10.92 7.76C10.93 7.71 10.95 7.67 10.97 7.63C10.99 7.58 11.02 7.55 11.05 7.51C11.08 7.47 11.11 7.44 11.15 7.41L11.2 7.36L13.65 5.65ZM7.92 9.66C7.96 9.63 8 9.61 8.05 9.59C8.09 9.57 8.13 9.55 8.18 9.54C8.23 9.53 8.28 9.52 8.32 9.52C8.37 9.52 8.42 9.52 8.47 9.53C8.51 9.54 8.56 9.55 8.6 9.56C8.65 9.58 8.69 9.6 8.73 9.62C8.78 9.65 8.81 9.68 8.85 9.71C8.89 9.74 8.92 9.77 8.95 9.81C8.98 9.85 9 9.89 9.02 9.93C9.05 9.97 9.06 10.02 9.08 10.07C9.09 10.11 9.1 10.16 9.1 10.21C9.11 10.25 9.11 10.3 9.1 10.35C9.1 10.4 9.09 10.44 9.07 10.49C9.06 10.53 9.04 10.58 9.02 10.62C9 10.66 8.97 10.7 8.94 10.74C8.91 10.78 8.88 10.81 8.84 10.84L8.78 10.89L6.32 12.61C6.25 12.66 6.18 12.72 6.11 12.77C6.04 12.83 5.98 12.89 5.92 12.96C5.86 13.02 5.8 13.09 5.74 13.16C5.69 13.23 5.64 13.3 5.59 13.37C5.54 13.45 5.5 13.53 5.46 13.6C5.42 13.68 5.38 13.76 5.35 13.85C5.31 13.93 5.28 14.01 5.26 14.1C5.23 14.18 5.21 14.27 5.2 14.36C5.18 14.45 5.17 14.53 5.16 14.62C5.15 14.71 5.15 14.8 5.15 14.89C5.15 14.98 5.16 15.06 5.17 15.15C5.18 15.24 5.19 15.33 5.21 15.42C5.23 15.5 5.25 15.59 5.27 15.67C5.3 15.76 5.33 15.84 5.37 15.92C5.4 16.01 5.44 16.09 5.48 16.16C5.52 16.24 5.57 16.32 5.62 16.39C5.67 16.47 5.72 16.54 5.78 16.61C5.83 16.67 5.89 16.74 5.96 16.8C6.02 16.87 6.08 16.93 6.15 16.98C6.22 17.04 6.29 17.09 6.37 17.14C6.44 17.19 6.52 17.24 6.59 17.28C6.67 17.32 6.75 17.36 6.83 17.39C6.92 17.43 7 17.46 7.08 17.49C7.17 17.51 7.25 17.54 7.34 17.55C7.43 17.57 7.52 17.59 7.6 17.59C7.69 17.6 7.78 17.61 7.87 17.61C7.96 17.61 8.05 17.61 8.14 17.6C8.22 17.59 8.31 17.58 8.4 17.57C8.49 17.55 8.57 17.53 8.66 17.5C8.74 17.48 8.83 17.45 8.91 17.42C8.99 17.39 9.07 17.35 9.15 17.31C9.23 17.27 9.31 17.22 9.38 17.18L9.48 17.12L11.94 15.39C11.98 15.36 12.02 15.34 12.06 15.32C12.11 15.3 12.15 15.29 12.2 15.28C12.24 15.27 12.29 15.26 12.34 15.26C12.39 15.25 12.43 15.26 12.48 15.26C12.53 15.27 12.57 15.28 12.62 15.3C12.66 15.32 12.71 15.34 12.75 15.36C12.79 15.38 12.83 15.41 12.86 15.44C12.9 15.47 12.93 15.51 12.96 15.55C12.99 15.58 13.02 15.62 13.04 15.67C13.06 15.71 13.08 15.75 13.09 15.8C13.1 15.85 13.11 15.89 13.12 15.94C13.12 15.99 13.12 16.04 13.11 16.08C13.11 16.13 13.1 16.18 13.09 16.22C13.07 16.27 13.05 16.31 13.03 16.35C13.01 16.4 12.98 16.44 12.95 16.47C12.92 16.51 12.89 16.55 12.86 16.58L12.8 16.62L10.34 18.34C10.22 18.42 10.11 18.5 9.99 18.57C9.87 18.64 9.74 18.7 9.62 18.75C9.49 18.81 9.36 18.86 9.23 18.9C9.1 18.95 8.97 18.99 8.83 19.02C8.7 19.05 8.56 19.07 8.43 19.09C8.29 19.11 8.15 19.12 8.01 19.12C7.87 19.13 7.74 19.12 7.6 19.11C7.46 19.1 7.32 19.09 7.19 19.07C7.05 19.04 6.92 19.01 6.78 18.98C6.65 18.94 6.52 18.9 6.39 18.85C6.26 18.8 6.13 18.75 6.01 18.69C5.88 18.63 5.76 18.56 5.65 18.49C5.53 18.41 5.41 18.33 5.3 18.25C5.19 18.17 5.09 18.08 4.99 17.98C4.89 17.89 4.79 17.79 4.7 17.69C4.61 17.58 4.52 17.48 4.44 17.36C4.36 17.25 4.28 17.14 4.21 17.02C4.14 16.9 4.08 16.77 4.02 16.65C3.96 16.52 3.91 16.4 3.87 16.26C3.82 16.13 3.78 16 3.75 15.87C3.72 15.73 3.69 15.6 3.67 15.46C3.66 15.32 3.64 15.19 3.64 15.05C3.63 14.91 3.63 14.77 3.64 14.63C3.65 14.49 3.66 14.36 3.68 14.22C3.71 14.08 3.73 13.95 3.77 13.82C3.8 13.68 3.84 13.55 3.89 13.42C3.94 13.29 3.99 13.16 4.05 13.04C4.11 12.91 4.18 12.79 4.25 12.67C4.32 12.55 4.4 12.44 4.48 12.33C4.56 12.22 4.65 12.11 4.74 12.01C4.84 11.91 4.93 11.81 5.04 11.72C5.14 11.63 5.25 11.54 5.36 11.46L5.46 11.38L7.92 9.66ZM14.23 9.52C14.27 9.49 14.31 9.47 14.35 9.45C14.4 9.43 14.45 9.42 14.49 9.41C14.54 9.4 14.59 9.39 14.64 9.39C14.69 9.39 14.73 9.39 14.78 9.4C14.83 9.41 14.88 9.43 14.92 9.44C14.97 9.46 15.01 9.48 15.05 9.51C15.09 9.54 15.13 9.57 15.16 9.6C15.2 9.63 15.23 9.67 15.26 9.71C15.29 9.75 15.31 9.79 15.33 9.84C15.35 9.88 15.36 9.93 15.37 9.97C15.39 10.02 15.39 10.07 15.39 10.12C15.39 10.17 15.39 10.21 15.38 10.26C15.38 10.31 15.36 10.36 15.35 10.4C15.33 10.45 15.31 10.49 15.28 10.53C15.26 10.57 15.23 10.61 15.2 10.65C15.16 10.68 15.13 10.72 15.09 10.75L9.76 14.47C9.72 14.5 9.68 14.52 9.64 14.54C9.59 14.56 9.54 14.57 9.5 14.58C9.45 14.59 9.4 14.6 9.35 14.6C9.3 14.6 9.26 14.6 9.21 14.59C9.16 14.58 9.11 14.56 9.07 14.55C9.02 14.53 8.98 14.51 8.94 14.48C8.9 14.45 8.86 14.42 8.83 14.39C8.79 14.36 8.76 14.32 8.73 14.28C8.7 14.24 8.68 14.2 8.66 14.15C8.64 14.11 8.63 14.06 8.62 14.02C8.61 13.97 8.6 13.92 8.6 13.87C8.6 13.82 8.6 13.78 8.61 13.73C8.62 13.68 8.63 13.63 8.64 13.59C8.66 13.54 8.68 13.5 8.71 13.46C8.73 13.42 8.76 13.38 8.8 13.34C8.83 13.31 8.86 13.27 8.9 13.25L14.23 9.52Z" fill="#FFFFFF" fill-opacity="1.000000" fill-rule="nonzero"/>
	</g>
</svg>
