<svg width="23.920288" height="22.580444" viewBox="0 0 23.9203 22.5804" fill="none" xmlns="http://www.w3.org/2000/svg" xmlns:xlink="http://www.w3.org/1999/xlink">
	<desc>
			Created with Pixso.
	</desc>
	<defs/>
	<path id="path" d="M10.18 11.54L10.18 7.41C10.18 7.21 10.1 7.01 9.95 6.87L9.03 5.94L9.03 1.81C9.03 1.6 8.95 1.41 8.81 1.26L7.76 0.22C7.62 0.08 7.42 0 7.22 0L3.93 0C3.72 0 3.53 0.08 3.39 0.22L2.34 1.26C2.19 1.41 2.11 1.6 2.11 1.81L2.11 5.94L1.19 6.86C1.17 6.88 1.15 6.9 1.14 6.92C1.13 6.93 1.12 6.95 1.11 6.96C1.1 6.97 1.1 6.97 1.09 6.98C1.08 7 1.07 7.02 1.06 7.03L1.06 7.04C1.05 7.06 1.03 7.08 1.03 7.1C1.03 7.1 1.03 7.1 1.02 7.1C1.02 7.13 1.01 7.14 1 7.16C1 7.17 1 7.17 1 7.18C0.99 7.19 0.98 7.21 0.98 7.23C0.98 7.24 0.97 7.24 0.97 7.25C0.97 7.26 0.97 7.28 0.97 7.3C0.97 7.31 0.97 7.31 0.96 7.32C0.96 7.34 0.96 7.37 0.96 7.39L0.96 11.53L0.22 12.27C0.08 12.41 0 12.61 0 12.81L0 21.72C0 22.14 0.34 22.49 0.76 22.49C1.18 22.49 1.53 22.14 1.53 21.72L1.53 15.87L9.6 15.87L9.6 21.72C9.6 22.14 9.95 22.49 10.37 22.49C10.79 22.49 11.13 22.14 11.13 21.72L11.13 12.81C11.13 12.61 11.05 12.41 10.91 12.27L10.18 11.54ZM2.49 7.72L3.41 6.8L7.49 2.72L7.49 5.18L2.49 10.18L2.49 7.72ZM3.64 2.12L4.24 1.52L6.52 1.52L3.64 4.41L3.64 2.12L3.64 2.12ZM1.53 13.32L7.88 6.96L8.64 7.72L8.64 8.66L2.95 14.35L1.53 14.35L1.53 13.32ZM5.12 14.35L8.65 10.83L8.65 11.86C8.65 12.06 8.73 12.26 8.87 12.4L9.61 13.14L9.61 14.35L5.12 14.35ZM23.69 5.87L21.92 4.1C21.78 3.96 21.59 3.88 21.38 3.88L16.47 3.88C16.27 3.88 16.07 3.96 15.93 4.1L14.16 5.87C14.02 6.01 13.94 6.21 13.94 6.41L13.94 21.81C13.94 22.23 14.28 22.58 14.71 22.58C15.13 22.58 15.47 22.23 15.47 21.81L15.47 19.75L22.38 19.75L22.38 21.81C22.38 22.23 22.73 22.58 23.15 22.58C23.57 22.58 23.92 22.23 23.92 21.81L23.92 6.41C23.92 6.21 23.83 6.02 23.69 5.87ZM22.38 6.73L22.38 7.71L15.47 14.63L15.47 11.64L21.38 5.73L22.38 6.73ZM16.79 5.41L19.53 5.41L15.47 9.47L15.47 6.73L16.79 5.41ZM15.47 16.79L22.38 9.88L22.38 12.87L17.04 18.22L15.47 18.22L15.47 16.79ZM19.2 18.21L22.38 15.03L22.38 18.21L19.2 18.21ZM6.78 19.16C6.78 19.82 6.23 20.37 5.57 20.37C4.9 20.37 4.36 19.82 4.36 19.16C4.36 18.49 4.9 17.95 5.57 17.95C6.23 17.95 6.78 18.49 6.78 19.16Z" fill="#343434" fill-opacity="1.000000" fill-rule="nonzero"/>
</svg>
