<svg width="24.000000" height="24.000000" viewBox="0 0 24 24" fill="none" xmlns="http://www.w3.org/2000/svg" xmlns:xlink="http://www.w3.org/1999/xlink">
	<desc>
			Created with Pixso.
	</desc>
	<defs>
		<clipPath id="clip417_68441">
			<rect id="断开，连线" width="24.000000" height="24.000000" fill="white" fill-opacity="0"/>
		</clipPath>
	</defs>
	<g clip-path="url(#clip417_68441)">
		<path id="path" d="M4 1L20 1C22 1 23 2 23 4L23 20C23 22 22 23 20 23L4 23C2 23 1 22 1 20L1 4C1 2 2 1 4 1Z" fill="#C4C4C4" fill-opacity="1.000000" fill-rule="nonzero"/>
		<path id="path" d="M6.83 4.62C6.87 4.59 6.92 4.57 6.96 4.55C7.01 4.53 7.05 4.52 7.1 4.5C7.15 4.49 7.2 4.49 7.25 4.49C7.3 4.49 7.34 4.49 7.39 4.5C7.44 4.51 7.49 4.52 7.54 4.54C7.58 4.56 7.62 4.58 7.67 4.6C7.71 4.63 7.75 4.66 7.78 4.7C7.82 4.73 7.85 4.77 7.88 4.81L17.34 18.32C17.37 18.36 17.39 18.41 17.41 18.45C17.43 18.5 17.45 18.54 17.46 18.59C17.47 18.64 17.48 18.69 17.48 18.74C17.48 18.79 17.47 18.83 17.46 18.88C17.46 18.93 17.44 18.98 17.43 19.02C17.41 19.07 17.39 19.11 17.36 19.16C17.33 19.2 17.3 19.24 17.27 19.27C17.23 19.31 17.2 19.34 17.16 19.37C17.12 19.4 17.07 19.42 17.03 19.44C16.98 19.46 16.94 19.47 16.89 19.48C16.84 19.5 16.79 19.5 16.74 19.5C16.69 19.5 16.64 19.5 16.6 19.49C16.55 19.48 16.5 19.47 16.45 19.45C16.41 19.43 16.37 19.41 16.32 19.39C16.28 19.36 16.24 19.33 16.21 19.29C16.17 19.26 16.14 19.22 16.11 19.18L6.65 5.67C6.62 5.63 6.6 5.58 6.58 5.54C6.56 5.49 6.54 5.45 6.53 5.4C6.52 5.35 6.51 5.3 6.51 5.25C6.51 5.2 6.52 5.16 6.52 5.11C6.53 5.06 6.55 5.01 6.56 4.96C6.58 4.92 6.6 4.88 6.63 4.83C6.66 4.79 6.69 4.75 6.72 4.72C6.76 4.68 6.79 4.65 6.83 4.62ZM13.65 5.65C13.77 5.57 13.88 5.49 14 5.42C14.12 5.35 14.25 5.29 14.37 5.24C14.5 5.18 14.63 5.13 14.76 5.09C14.89 5.04 15.02 5 15.16 4.97C15.29 4.94 15.43 4.92 15.56 4.9C15.7 4.88 15.84 4.87 15.98 4.87C16.12 4.86 16.25 4.87 16.39 4.88C16.53 4.89 16.67 4.9 16.8 4.92C16.94 4.95 17.07 4.98 17.21 5.01C17.34 5.05 17.47 5.09 17.6 5.14C17.73 5.19 17.86 5.24 17.98 5.3C18.11 5.36 18.23 5.43 18.34 5.5C18.46 5.58 18.58 5.66 18.69 5.74C18.8 5.82 18.9 5.91 19 6.01C19.1 6.1 19.2 6.2 19.29 6.3C19.38 6.41 19.47 6.51 19.55 6.63C19.63 6.74 19.71 6.85 19.78 6.97C19.85 7.09 19.91 7.22 19.97 7.34C20.03 7.47 20.08 7.59 20.12 7.73C20.17 7.86 20.21 7.99 20.24 8.12C20.27 8.26 20.3 8.39 20.32 8.53C20.33 8.67 20.35 8.8 20.35 8.94C20.36 9.08 20.36 9.22 20.35 9.36C20.34 9.5 20.33 9.63 20.31 9.77C20.28 9.91 20.26 10.04 20.22 10.17C20.19 10.31 20.15 10.44 20.1 10.57C20.05 10.7 20 10.83 19.94 10.95C19.88 11.08 19.81 11.2 19.74 11.32C19.67 11.44 19.59 11.55 19.51 11.66C19.43 11.77 19.34 11.88 19.25 11.98C19.15 12.08 19.06 12.18 18.95 12.27C18.85 12.36 18.74 12.45 18.63 12.53L18.53 12.61L16.49 14.03C16.45 14.06 16.41 14.09 16.37 14.11C16.32 14.12 16.28 14.14 16.23 14.15C16.19 14.16 16.14 14.17 16.09 14.17C16.04 14.17 16 14.17 15.95 14.16C15.9 14.16 15.85 14.14 15.81 14.13C15.77 14.11 15.72 14.09 15.68 14.07C15.64 14.04 15.6 14.02 15.57 13.98C15.53 13.95 15.5 13.92 15.47 13.88C15.44 13.84 15.41 13.8 15.39 13.76C15.37 13.72 15.35 13.67 15.34 13.63C15.33 13.58 15.32 13.53 15.31 13.49C15.31 13.44 15.31 13.39 15.31 13.34C15.32 13.3 15.33 13.25 15.34 13.2C15.36 13.16 15.37 13.11 15.4 13.07C15.42 13.03 15.44 12.99 15.47 12.95C15.5 12.92 15.54 12.88 15.57 12.85L15.63 12.81L17.67 11.38C17.74 11.33 17.81 11.27 17.88 11.22C17.95 11.16 18.01 11.1 18.07 11.03C18.13 10.97 18.19 10.9 18.25 10.83C18.3 10.76 18.35 10.69 18.4 10.62C18.45 10.54 18.49 10.46 18.53 10.39C18.57 10.31 18.61 10.23 18.64 10.14C18.68 10.06 18.71 9.98 18.73 9.89C18.76 9.81 18.78 9.72 18.79 9.63C18.81 9.54 18.82 9.46 18.83 9.37C18.84 9.28 18.84 9.19 18.84 9.1C18.84 9.01 18.83 8.93 18.82 8.84C18.81 8.75 18.8 8.66 18.78 8.57C18.76 8.49 18.74 8.4 18.72 8.32C18.69 8.23 18.66 8.15 18.62 8.07C18.59 7.98 18.55 7.9 18.51 7.83C18.47 7.75 18.42 7.67 18.37 7.6C18.32 7.52 18.27 7.45 18.21 7.38C18.16 7.31 18.1 7.25 18.03 7.19C17.97 7.12 17.91 7.06 17.84 7.01C17.77 6.95 17.7 6.9 17.62 6.85C17.55 6.8 17.47 6.75 17.4 6.71C17.32 6.67 17.24 6.63 17.16 6.59C17.07 6.56 16.99 6.53 16.91 6.5C16.82 6.48 16.74 6.45 16.65 6.44C16.56 6.42 16.47 6.4 16.39 6.4C16.3 6.39 16.21 6.38 16.12 6.38C16.03 6.38 15.94 6.38 15.85 6.39C15.77 6.4 15.68 6.41 15.59 6.42C15.5 6.44 15.42 6.46 15.33 6.49C15.25 6.51 15.16 6.54 15.08 6.57C15 6.6 14.92 6.64 14.84 6.68C14.76 6.72 14.68 6.77 14.61 6.81L14.51 6.87L12.47 8.3C12.43 8.33 12.39 8.35 12.35 8.37C12.31 8.39 12.26 8.41 12.21 8.42C12.17 8.43 12.12 8.44 12.07 8.44C12.02 8.44 11.98 8.44 11.93 8.43C11.88 8.42 11.84 8.41 11.79 8.4C11.75 8.38 11.7 8.36 11.66 8.34C11.62 8.31 11.58 8.28 11.55 8.25C11.51 8.22 11.48 8.19 11.45 8.15C11.42 8.11 11.39 8.07 11.37 8.03C11.35 7.98 11.33 7.94 11.32 7.89C11.31 7.85 11.3 7.8 11.3 7.75C11.29 7.71 11.29 7.66 11.3 7.61C11.3 7.56 11.31 7.52 11.32 7.47C11.34 7.43 11.36 7.38 11.38 7.34C11.4 7.3 11.43 7.26 11.46 7.22C11.49 7.18 11.52 7.15 11.56 7.12L11.61 7.07L13.65 5.65ZM7.51 9.95C7.55 9.92 7.59 9.9 7.64 9.88C7.68 9.86 7.73 9.84 7.77 9.83C7.82 9.82 7.87 9.81 7.91 9.81C7.96 9.81 8.01 9.81 8.05 9.82C8.1 9.83 8.15 9.84 8.19 9.86C8.24 9.87 8.28 9.89 8.32 9.92C8.36 9.94 8.4 9.97 8.44 10C8.47 10.03 8.5 10.06 8.53 10.1C8.56 10.14 8.59 10.18 8.61 10.22C8.63 10.27 8.65 10.31 8.66 10.36C8.67 10.4 8.68 10.45 8.69 10.49C8.69 10.54 8.69 10.59 8.69 10.64C8.68 10.68 8.67 10.73 8.66 10.78C8.65 10.82 8.63 10.87 8.61 10.91C8.58 10.95 8.56 10.99 8.53 11.03C8.5 11.06 8.47 11.1 8.43 11.13L8.37 11.17L6.32 12.61C6.25 12.66 6.18 12.72 6.11 12.77C6.04 12.83 5.98 12.89 5.92 12.96C5.86 13.02 5.8 13.09 5.74 13.16C5.69 13.23 5.64 13.3 5.59 13.37C5.54 13.45 5.5 13.53 5.46 13.6C5.41 13.68 5.38 13.76 5.35 13.85C5.31 13.93 5.28 14.01 5.26 14.1C5.23 14.18 5.21 14.27 5.2 14.36C5.18 14.45 5.17 14.53 5.16 14.62C5.15 14.71 5.15 14.8 5.15 14.89C5.15 14.98 5.16 15.06 5.17 15.15C5.18 15.24 5.19 15.33 5.21 15.42C5.23 15.5 5.25 15.59 5.27 15.67C5.3 15.76 5.33 15.84 5.37 15.92C5.4 16.01 5.44 16.09 5.48 16.16C5.52 16.24 5.57 16.32 5.62 16.39C5.67 16.47 5.72 16.54 5.78 16.61C5.83 16.67 5.89 16.74 5.96 16.8C6.02 16.87 6.08 16.93 6.15 16.98C6.22 17.04 6.29 17.09 6.37 17.14C6.44 17.19 6.52 17.24 6.59 17.28C6.67 17.32 6.75 17.36 6.83 17.39C6.92 17.43 7 17.46 7.08 17.49C7.17 17.51 7.25 17.54 7.34 17.55C7.43 17.57 7.52 17.59 7.6 17.59C7.69 17.6 7.78 17.61 7.87 17.61C7.96 17.61 8.05 17.61 8.14 17.6C8.22 17.59 8.31 17.58 8.4 17.57C8.49 17.55 8.57 17.53 8.66 17.5C8.74 17.48 8.83 17.45 8.91 17.42C8.99 17.39 9.07 17.35 9.15 17.31C9.23 17.27 9.31 17.22 9.38 17.18L9.48 17.12L11.53 15.68C11.57 15.65 11.61 15.63 11.65 15.61C11.7 15.59 11.74 15.57 11.79 15.56C11.83 15.55 11.88 15.54 11.93 15.54C11.98 15.54 12.03 15.54 12.07 15.55C12.12 15.56 12.17 15.57 12.21 15.58C12.26 15.6 12.3 15.62 12.34 15.64C12.38 15.67 12.42 15.7 12.46 15.73C12.49 15.76 12.53 15.79 12.56 15.83C12.58 15.87 12.61 15.91 12.63 15.95C12.65 15.99 12.67 16.04 12.68 16.09C12.7 16.13 12.71 16.18 12.71 16.23C12.71 16.27 12.71 16.32 12.71 16.37C12.7 16.42 12.69 16.46 12.68 16.51C12.67 16.56 12.65 16.6 12.62 16.64C12.6 16.68 12.58 16.72 12.55 16.76C12.52 16.8 12.48 16.83 12.45 16.86L12.39 16.91L10.34 18.34C10.22 18.42 10.11 18.5 9.99 18.57C9.87 18.64 9.74 18.7 9.62 18.75C9.49 18.81 9.36 18.86 9.23 18.9C9.1 18.95 8.97 18.99 8.83 19.02C8.7 19.05 8.56 19.07 8.43 19.09C8.29 19.11 8.15 19.12 8.01 19.12C7.87 19.13 7.74 19.12 7.6 19.11C7.46 19.1 7.32 19.09 7.19 19.07C7.05 19.04 6.92 19.01 6.78 18.98C6.65 18.94 6.52 18.9 6.39 18.85C6.26 18.8 6.13 18.75 6.01 18.69C5.88 18.63 5.76 18.56 5.64 18.49C5.53 18.41 5.41 18.34 5.3 18.25C5.19 18.17 5.09 18.08 4.99 17.98C4.89 17.89 4.79 17.79 4.7 17.69C4.61 17.58 4.52 17.48 4.44 17.36C4.36 17.25 4.28 17.14 4.21 17.02C4.14 16.9 4.08 16.77 4.02 16.65C3.96 16.52 3.91 16.4 3.87 16.26C3.82 16.13 3.78 16 3.75 15.87C3.72 15.73 3.69 15.6 3.67 15.46C3.66 15.32 3.64 15.19 3.64 15.05C3.63 14.91 3.63 14.77 3.64 14.63C3.65 14.49 3.66 14.36 3.68 14.22C3.71 14.08 3.73 13.95 3.77 13.82C3.8 13.68 3.84 13.55 3.89 13.42C3.94 13.29 3.99 13.16 4.05 13.04C4.11 12.91 4.18 12.79 4.25 12.67C4.32 12.55 4.4 12.44 4.48 12.33C4.56 12.22 4.65 12.11 4.74 12.01C4.84 11.91 4.93 11.81 5.04 11.72C5.14 11.63 5.25 11.54 5.36 11.46L5.46 11.38L7.51 9.95Z" fill="#FFFFFF" fill-opacity="1.000000" fill-rule="nonzero"/>
	</g>
</svg>
