<svg width="24.000000" height="24.000000" viewBox="0 0 24 24" fill="none" xmlns="http://www.w3.org/2000/svg" xmlns:xlink="http://www.w3.org/1999/xlink">
	<desc>
			Created with Pixso.
	</desc>
	<defs>
		<clipPath id="clip417_68510">
			<rect id="密匙" width="12.000000" height="12.000000" transform="matrix(1 0 0 -1 11.9998 22.4998)" fill="white" fill-opacity="0"/>
		</clipPath>
		<clipPath id="clip417_68512">
			<rect id="用户_删除用户" width="24.000000" height="24.000000" fill="white" fill-opacity="0"/>
		</clipPath>
	</defs>
	<g clip-path="url(#clip417_68512)">
		<path id="合并" d="M11.999 1.49878C11.8271 1.49878 11.6555 1.50732 11.4844 1.52417C11.3989 1.53247 11.314 1.54297 11.2292 1.55542C11.144 1.56812 11.0593 1.58276 10.9749 1.59961C10.8062 1.6333 10.6396 1.67505 10.4751 1.72485C10.3105 1.77466 10.1489 1.83252 9.98999 1.89844C9.83105 1.96411 9.67578 2.0376 9.52417 2.11865C9.37256 2.19971 9.22534 2.28809 9.08228 2.38354C8.93945 2.479 8.80151 2.5813 8.66846 2.69043C8.53564 2.79956 8.4082 2.91479 8.28662 3.03638C8.16504 3.15796 8.0498 3.2854 7.94067 3.41821C7.83154 3.55103 7.72925 3.68896 7.63379 3.83203C7.53833 3.9751 7.44995 4.12231 7.3689 4.27393C7.28784 4.42554 7.21436 4.58081 7.14868 4.73975C7.08276 4.89844 7.0249 5.0603 6.9751 5.22485C6.92529 5.3894 6.88354 5.55591 6.84985 5.72461C6.81641 5.89331 6.79126 6.06299 6.77441 6.23413C6.75757 6.40527 6.74902 6.5769 6.74902 6.74878C6.74902 6.92065 6.75757 7.09229 6.77441 7.26343C6.79126 7.43457 6.81641 7.60425 6.84985 7.77295C6.88354 7.94165 6.92529 8.10815 6.9751 8.27271C7.0249 8.43726 7.08276 8.59912 7.14868 8.75781C7.21436 8.91675 7.28784 9.07202 7.3689 9.22363C7.44995 9.37524 7.53833 9.52246 7.63379 9.66553C7.72925 9.80859 7.83154 9.94653 7.94067 10.0793C8.0498 10.2122 8.16504 10.3396 8.28662 10.4612C8.4082 10.5828 8.53564 10.698 8.66846 10.8071C8.80151 10.9163 8.93945 11.0186 9.08228 11.114C9.22534 11.2095 9.37256 11.2979 9.52417 11.3789C9.67578 11.46 9.83105 11.5334 9.98999 11.5991C10.1489 11.665 10.3105 11.7229 10.4751 11.7727C10.6396 11.8225 10.8062 11.8643 10.9749 11.8979C11.1436 11.9314 11.3132 11.9565 11.4844 11.9734C11.6555 11.9902 11.8271 11.9988 11.999 11.9988C12.1709 11.9988 12.3425 11.9902 12.5137 11.9734C12.6848 11.9565 12.8547 11.9314 13.0232 11.8979C13.1919 11.8643 13.3584 11.8225 13.5229 11.7727C13.6875 11.7229 13.8494 11.665 14.0081 11.5991C14.167 11.5334 14.3223 11.46 14.4739 11.3789C14.6255 11.2979 14.7727 11.2095 14.9158 11.114C15.0588 11.0186 15.1968 10.9163 15.3296 10.8071C15.4624 10.698 15.5898 10.5828 15.7114 10.4612C15.833 10.3396 15.9482 10.2122 16.0574 10.0793C16.1665 9.94653 16.2688 9.80859 16.3643 9.66553C16.4597 9.52246 16.5481 9.37524 16.6292 9.22363C16.7102 9.07202 16.7837 8.91675 16.8494 8.75781C16.9153 8.59912 16.9731 8.43726 17.0229 8.27271C17.073 8.10815 17.1145 7.94165 17.1482 7.77295C17.1816 7.60425 17.207 7.43457 17.2239 7.26343C17.2407 7.09229 17.249 6.92065 17.249 6.74878C17.249 6.5769 17.2407 6.40527 17.2239 6.23413C17.2153 6.14868 17.2048 6.06372 17.1924 5.97876L17.1921 5.97852C17.1797 5.89355 17.165 5.80884 17.1482 5.72461C17.1145 5.55591 17.073 5.3894 17.0229 5.22485C16.9731 5.0603 16.9153 4.89844 16.8494 4.73975C16.7837 4.58081 16.7102 4.42554 16.6292 4.27393C16.5481 4.12231 16.4597 3.9751 16.3643 3.83203C16.2688 3.68896 16.1665 3.55103 16.0574 3.41821C15.9482 3.2854 15.833 3.15796 15.7114 3.03638C15.5898 2.91479 15.4624 2.79956 15.3296 2.69043C15.1968 2.5813 15.0588 2.479 14.9158 2.38354C14.7727 2.28809 14.6255 2.19971 14.4739 2.11865C14.3223 2.0376 14.167 1.96411 14.0081 1.89844C13.9287 1.86548 13.8486 1.83472 13.7678 1.80566L13.7676 1.80566L13.7673 1.80542C13.6865 1.77661 13.6052 1.74976 13.5229 1.72485C13.3584 1.67505 13.1919 1.6333 13.0232 1.59961C12.8547 1.56616 12.6848 1.54102 12.5137 1.52417C12.3425 1.50732 12.1709 1.49878 11.999 1.49878ZM11.999 3.74878C12.0974 3.74878 12.1953 3.75366 12.2932 3.76318C12.3909 3.77295 12.488 3.78735 12.5842 3.8064C12.6807 3.82568 12.7759 3.84937 12.8699 3.87793C12.9639 3.90649 13.0564 3.93945 13.147 3.97705C13.2378 4.01465 13.3267 4.05664 13.4133 4.10303C13.5 4.14941 13.584 4.19971 13.6658 4.25439C13.7476 4.30884 13.8262 4.36743 13.9023 4.42969C13.9783 4.49219 14.0508 4.55786 14.1204 4.62744C14.1899 4.69702 14.2559 4.76953 14.3181 4.8457C14.3804 4.92163 14.439 5.00049 14.4934 5.08203C14.5481 5.16382 14.5984 5.24805 14.6448 5.33447C14.6912 5.42114 14.7332 5.51001 14.7708 5.60083C14.8083 5.69141 14.8413 5.78394 14.8699 5.87793C14.8984 5.97192 14.9221 6.06714 14.9414 6.16357C14.9604 6.25977 14.9749 6.35693 14.9846 6.45483C14.9941 6.55249 14.999 6.65063 14.999 6.74878C14.999 6.79785 14.9978 6.84668 14.9954 6.89551L14.9954 6.89551L14.9954 6.896C14.9929 6.94507 14.9895 6.9939 14.9846 7.04272C14.9749 7.14062 14.9604 7.23779 14.9414 7.33398C14.9221 7.43042 14.8984 7.52563 14.8699 7.61963C14.8413 7.71362 14.8083 7.80615 14.7708 7.89673C14.7332 7.98755 14.6912 8.07642 14.6448 8.16309C14.5984 8.24951 14.5481 8.33374 14.4934 8.41553C14.439 8.49707 14.3804 8.57593 14.3181 8.65186C14.2559 8.72803 14.1899 8.80054 14.1204 8.87012C14.0508 8.93945 13.9783 9.00537 13.9023 9.06787C13.8262 9.13013 13.7476 9.18872 13.6658 9.24316C13.584 9.29785 13.5 9.34814 13.4133 9.39453C13.3267 9.44092 13.2378 9.48291 13.147 9.52051C13.0564 9.55811 12.9639 9.59106 12.8699 9.61963C12.7759 9.64819 12.6807 9.67188 12.5842 9.69116C12.488 9.71021 12.3909 9.72461 12.2932 9.73438C12.1953 9.7439 12.0974 9.74878 11.999 9.74878C11.9009 9.74878 11.8027 9.7439 11.7051 9.73438C11.6072 9.72461 11.5103 9.71021 11.4138 9.69116C11.3174 9.67188 11.2222 9.64819 11.1282 9.61963C11.0342 9.59106 10.9417 9.55811 10.8511 9.52051C10.7603 9.48291 10.6714 9.44092 10.585 9.39453C10.4983 9.34814 10.4141 9.29785 10.3323 9.24316C10.2507 9.18872 10.1719 9.13013 10.0959 9.06787C10.02 9.00537 9.94727 8.93945 9.87769 8.87012C9.80835 8.80054 9.74243 8.72803 9.67993 8.65186C9.64893 8.61426 9.6189 8.57568 9.58984 8.53638C9.56055 8.49683 9.53198 8.45654 9.50464 8.41553C9.44995 8.33374 9.39966 8.24951 9.35327 8.16309C9.30688 8.07642 9.26489 7.98755 9.22729 7.89673C9.1897 7.80615 9.15674 7.71362 9.12817 7.61963C9.09961 7.52563 9.07593 7.43042 9.05664 7.33398C9.0376 7.23779 9.02319 7.14062 9.01343 7.04272C9.00879 6.9939 9.00513 6.94482 9.00269 6.89575L9.00269 6.89575C9.00024 6.84668 8.99902 6.79785 8.99902 6.74878C8.99902 6.65063 9.00391 6.55249 9.01343 6.45483C9.02319 6.35693 9.0376 6.25977 9.05664 6.16357C9.07593 6.06714 9.09961 5.97192 9.12817 5.87793C9.15674 5.78394 9.1897 5.69141 9.22729 5.60083C9.26489 5.51001 9.30688 5.42114 9.35327 5.33447C9.39966 5.24805 9.44995 5.16382 9.50464 5.08203C9.55933 5.00049 9.61768 4.92163 9.67993 4.8457C9.74243 4.76953 9.80835 4.69702 9.87769 4.62744C9.94727 4.55786 10.02 4.49219 10.0959 4.42969C10.1719 4.36743 10.2507 4.30884 10.3323 4.25439C10.4141 4.19971 10.4983 4.14941 10.585 4.10303C10.6714 4.05664 10.7603 4.01465 10.8511 3.97705C10.9417 3.93945 11.0342 3.90649 11.1282 3.87793C11.2222 3.84937 11.3174 3.82568 11.4138 3.8064C11.5103 3.78735 11.6072 3.77295 11.7051 3.76318C11.8027 3.75366 11.9009 3.74878 11.999 3.74878ZM20.0364 16.3506C19.8418 16.4744 19.6338 16.5767 19.4121 16.658L19.4121 21.415C19.4121 21.4524 19.4099 21.4897 19.4053 21.5266C19.3931 21.6233 19.3652 21.7178 19.3218 21.8103C19.3074 21.8411 19.2917 21.8708 19.2747 21.8999C19.2207 21.9924 19.1533 22.0776 19.0732 22.155C18.9678 22.2568 18.8472 22.3396 18.7114 22.4036C18.5759 22.4678 18.4365 22.4998 18.2935 22.4998C18.1504 22.4998 18.0166 22.4678 17.8923 22.4036C17.7681 22.3396 17.6606 22.2568 17.5703 22.155C17.48 22.0532 17.4102 21.9385 17.3613 21.8103C17.3123 21.6824 17.2878 21.5505 17.2878 21.415L17.2878 16.6692C16.979 16.5562 16.6946 16.4019 16.4348 16.2058C16.1748 16.01 15.9507 15.7822 15.7625 15.5222C15.574 15.2625 15.4272 14.9761 15.3218 14.6636C15.3171 14.6501 15.3127 14.6367 15.3083 14.6233C15.2119 14.3228 15.1636 14.0066 15.1636 13.6748C15.1636 13.2305 15.2463 12.8162 15.4121 12.4319C15.5779 12.0476 15.8057 11.7124 16.0957 11.4263C16.3857 11.1399 16.7229 10.9141 17.1069 10.7483C17.4912 10.5825 17.9019 10.4998 18.3386 10.4998C18.7756 10.4998 19.186 10.5825 19.5703 10.7483C19.9546 10.9141 20.2915 11.1399 20.5815 11.4263C20.8716 11.7124 21.0996 12.0476 21.2651 12.4319C21.4309 12.8162 21.5139 13.2305 21.5139 13.6748C21.5139 14.0139 21.4629 14.3396 21.3613 14.6521C21.2595 14.9648 21.1145 15.251 20.9263 15.511C20.7378 15.7708 20.5156 15.9988 20.2595 16.1946C20.1873 16.2498 20.1128 16.3018 20.0364 16.3506ZM18.7925 12.6633C18.6609 12.6069 18.5171 12.5789 18.3613 12.5789C18.0525 12.5789 17.7925 12.6843 17.5815 12.8953C17.3706 13.106 17.2651 13.366 17.2651 13.6748C17.2651 13.9761 17.3706 14.2322 17.5815 14.4431C17.7925 14.6541 18.0525 14.7595 18.3613 14.7595C18.5171 14.7595 18.6609 14.7314 18.7925 14.6748C18.9155 14.6223 19.0278 14.5449 19.1296 14.4431C19.3406 14.2322 19.446 13.9761 19.446 13.6748C19.446 13.366 19.3406 13.106 19.1296 12.8953C19.0278 12.7932 18.9155 12.7161 18.7925 12.6633ZM12.0066 13.5032L12.0066 14.2532C12.0066 14.3025 12.0017 14.3513 11.9922 14.3997C11.9824 14.448 11.9683 14.4949 11.9495 14.5403C11.9307 14.5857 11.9075 14.6289 11.8801 14.6699C11.8528 14.7109 11.8218 14.7488 11.7869 14.7837C11.752 14.8184 11.7141 14.8496 11.6733 14.877C11.6323 14.9043 11.5891 14.9272 11.5435 14.9463C11.498 14.9651 11.4512 14.9792 11.4028 14.9888C11.3545 14.9985 11.3059 15.0032 11.2566 15.0032L10.8816 15.0032C7.37012 15.0032 4.62793 17.9507 4.50049 21.4248L4.48706 21.7998C4.48535 21.8491 4.47876 21.8975 4.46729 21.9456C4.45605 21.9934 4.43994 22.0398 4.41943 22.0845C4.39893 22.1294 4.37427 22.1716 4.34546 22.2117C4.31665 22.2517 4.28418 22.2883 4.24805 22.3218C4.21216 22.3555 4.1731 22.385 4.1311 22.4109C4.08911 22.4368 4.04517 22.4583 3.99902 22.4756C3.95288 22.4927 3.90552 22.5051 3.85693 22.5129C3.80811 22.5208 3.75928 22.5239 3.70996 22.522L2.95996 22.4944C2.93555 22.4934 2.91113 22.4912 2.88672 22.488L2.88672 22.488C2.86255 22.4846 2.83838 22.4802 2.81445 22.4744C2.7666 22.4631 2.72021 22.447 2.67554 22.4265C2.63062 22.406 2.58838 22.3813 2.54858 22.3525C2.50854 22.3237 2.47192 22.2913 2.43848 22.2551C2.40503 22.219 2.37524 22.1802 2.34937 22.1382C2.32373 22.0962 2.30225 22.0522 2.28491 22.0061C2.27637 21.9829 2.26904 21.9597 2.2627 21.936L2.2627 21.9358L2.2627 21.9358C2.25659 21.9121 2.25146 21.8882 2.24756 21.864C2.24365 21.8398 2.24097 21.8154 2.2395 21.791C2.23804 21.7666 2.23755 21.7419 2.23853 21.7173L2.25195 21.3423C2.42163 16.7087 6.10254 12.7542 10.8816 12.7542L11.2566 12.7542C11.3059 12.7542 11.3545 12.7588 11.4028 12.7686C11.4512 12.7781 11.498 12.7922 11.5435 12.811C11.5891 12.8301 11.6323 12.853 11.6733 12.8804C11.7141 12.9077 11.752 12.939 11.7869 12.9736C11.8218 13.0085 11.8528 13.0464 11.8801 13.0874C11.8938 13.1079 11.9065 13.1289 11.918 13.1504L11.918 13.1506C11.9294 13.1721 11.9399 13.1943 11.9495 13.217C11.9683 13.2625 11.9824 13.3093 11.9922 13.3577C12.0017 13.406 12.0066 13.4541 12.0066 13.5032ZM21.5251 20.3979C21.5251 20.8499 21.2839 21.0759 20.802 21.0759L20.1125 21.0759L20.1125 18.9629L20.8923 18.9629C21.0505 18.9629 21.1956 19.0137 21.3274 19.1155C21.4592 19.2173 21.5251 19.3999 21.5251 19.6636L21.5251 20.3979Z" clip-rule="evenodd" fill="#343434" fill-opacity="1.000000" fill-rule="evenodd"/>
	</g>
</svg>
