<svg width="30.000000" height="30.000000" viewBox="0 0 30 30" fill="none" xmlns="http://www.w3.org/2000/svg" xmlns:xlink="http://www.w3.org/1999/xlink">
	<desc>
			Created with Pixso.
	</desc>
	<defs>
		<clipPath id="clip870_1919">
			<rect id="图表-饼图" width="29.999998" height="30.000000" fill="white" fill-opacity="0"/>
		</clipPath>
	</defs>
	<g clip-path="url(#clip870_1919)">
		<path id="path" d="M3.75 1.87L1.87 1.87L1.87 28.12L28.12 28.12L28.12 26.25L3.75 26.25L3.75 1.87Z" fill="#FFFFFF" fill-opacity="1.000000" fill-rule="nonzero"/>
		<path id="path" d="M14.06 7.59L14.06 16.87L22.21 16.87C21.37 20.06 18.46 22.5 15 22.5C10.87 22.5 7.5 19.12 7.5 15C7.5 11.15 10.4 8.06 14.06 7.59ZM15 5.62C9.84 5.62 5.62 9.84 5.62 15C5.62 20.15 9.84 24.37 15 24.37C20.15 24.37 24.37 20.15 24.37 15L15.93 15L15.93 5.62L15 5.62Z" fill="#FFFFFF" fill-opacity="1.000000" fill-rule="nonzero"/>
		<path id="path" d="M19.68 3.93C23.34 4.59 25.59 7.21 26.15 11.25L19.68 11.25L19.68 3.93ZM17.81 1.87L17.81 13.12L28.12 13.12C28.12 6.56 24.37 1.87 17.81 1.87Z" fill="#FFFFFF" fill-opacity="1.000000" fill-rule="nonzero"/>
	</g>
</svg>
