<svg width="30.000000" height="30.000000" viewBox="0 0 30 30" fill="none" xmlns="http://www.w3.org/2000/svg" xmlns:xlink="http://www.w3.org/1999/xlink">
	<desc>
			Created with Pixso.
	</desc>
	<defs>
		<clipPath id="clip870_1923">
			<rect id="Outline / Design, Tools / Colour Tuneing" rx="5.000000" width="30.000000" height="30.000000" fill="white" fill-opacity="0"/>
		</clipPath>
	</defs>
	<g clip-path="url(#clip870_1923)">
		<path id="Vector" d="M9.11 7.33C8.4 8.38 7.89 9.82 7.89 11.31C7.89 11.72 7.55 12.06 7.14 12.06C6.72 12.06 6.39 11.72 6.39 11.31C6.39 9.49 7.01 7.77 7.87 6.49C8.3 5.85 8.8 5.3 9.34 4.91C9.87 4.52 10.49 4.24 11.14 4.24C12.7 4.24 13.89 5.36 14.64 7.14C15.4 8.91 15.82 11.53 15.82 14.99C15.82 18.37 16.23 20.76 16.87 22.27C17.51 23.78 18.29 24.24 19 24.24C19.22 24.24 19.53 24.15 19.91 23.87C20.28 23.6 20.67 23.19 21.02 22.66C21.73 21.61 22.25 20.17 22.25 18.68C22.25 18.26 22.58 17.93 23 17.93C23.41 17.93 23.75 18.26 23.75 18.68C23.75 20.5 23.13 22.22 22.27 23.5C21.84 24.14 21.33 24.69 20.79 25.08C20.26 25.47 19.64 25.74 19 25.74C17.43 25.74 16.25 24.63 15.49 22.85C14.73 21.08 14.32 18.46 14.32 14.99C14.32 11.62 13.91 9.23 13.26 7.72C12.62 6.21 11.84 5.74 11.14 5.74C10.92 5.74 10.6 5.84 10.22 6.12C9.85 6.39 9.46 6.8 9.11 7.33ZM4.25 14.99C4.25 14.58 4.58 14.24 5 14.24L12.5 14.24C12.91 14.24 13.25 14.58 13.25 14.99C13.25 15.41 12.91 15.74 12.5 15.74L5 15.74C4.58 15.74 4.25 15.41 4.25 14.99ZM16.75 14.99C16.75 14.58 17.08 14.24 17.5 14.24L25 14.24C25.41 14.24 25.75 14.58 25.75 14.99C25.75 15.41 25.41 15.74 25 15.74L17.5 15.74C17.08 15.74 16.75 15.41 16.75 14.99Z" fill="#FFFFFF" fill-opacity="1.000000" fill-rule="evenodd"/>
	</g>
</svg>
