<svg width="30.000000" height="30.000000" viewBox="0 0 30 30" fill="none" xmlns="http://www.w3.org/2000/svg" xmlns:xlink="http://www.w3.org/1999/xlink">
	<desc>
			Created with Pixso.
	</desc>
	<defs>
		<clipPath id="clip870_1930">
			<rect id="列表" width="30.000000" height="30.000000" fill="white" fill-opacity="0"/>
		</clipPath>
	</defs>
	<g clip-path="url(#clip870_1930)">
		<path id="path" d="M12.27 8.43L24.37 8.43C24.89 8.43 25.31 8.01 25.31 7.49C25.31 6.98 24.89 6.56 24.37 6.56L12.27 6.56C11.75 6.56 11.33 6.98 11.33 7.49C11.33 8.01 11.75 8.43 12.27 8.43ZM12.27 15.91L24.33 15.91C24.85 15.91 25.27 15.49 25.27 14.97C25.27 14.45 24.85 14.03 24.33 14.03L12.27 14.03C11.75 14.03 11.33 14.45 11.33 14.97C11.33 15.49 11.75 15.91 12.27 15.91ZM24.37 21.55L12.27 21.55C11.75 21.55 11.33 21.97 11.33 22.49C11.33 23.01 11.75 23.43 12.27 23.43L24.37 23.43C24.89 23.43 25.31 23.01 25.31 22.49C25.31 21.97 24.89 21.55 24.37 21.55Z" fill="#FFFFFF" fill-opacity="1.000000" fill-rule="nonzero"/>
		<path id="path" d="M5.62 7.49C5.62 7.62 5.63 7.74 5.66 7.86C5.68 7.98 5.72 8.1 5.76 8.21C5.81 8.32 5.87 8.43 5.94 8.54C6.01 8.64 6.08 8.73 6.17 8.82C6.26 8.91 6.35 8.98 6.45 9.05C6.56 9.12 6.66 9.18 6.78 9.23C6.89 9.27 7.01 9.31 7.13 9.33C7.25 9.36 7.37 9.37 7.5 9.37C7.62 9.37 7.74 9.36 7.86 9.33C7.98 9.31 8.1 9.27 8.21 9.23C8.33 9.18 8.44 9.12 8.54 9.05C8.64 8.98 8.73 8.91 8.82 8.82C8.91 8.73 8.99 8.64 9.06 8.54C9.12 8.43 9.18 8.32 9.23 8.21C9.28 8.1 9.31 7.98 9.33 7.86C9.36 7.74 9.37 7.62 9.37 7.49C9.37 7.37 9.36 7.25 9.33 7.13C9.31 7.01 9.28 6.89 9.23 6.78C9.18 6.66 9.12 6.55 9.06 6.45C8.99 6.35 8.91 6.25 8.82 6.17C8.73 6.08 8.64 6 8.54 5.93C8.44 5.87 8.33 5.81 8.21 5.76C8.1 5.71 7.98 5.68 7.86 5.65C7.74 5.63 7.62 5.62 7.5 5.62C7.37 5.62 7.25 5.63 7.13 5.65C7.01 5.68 6.89 5.71 6.78 5.76C6.66 5.81 6.56 5.87 6.45 5.93C6.35 6 6.26 6.08 6.17 6.17C6.08 6.25 6.01 6.35 5.94 6.45C5.87 6.55 5.81 6.66 5.76 6.78C5.72 6.89 5.68 7.01 5.66 7.13C5.63 7.25 5.62 7.37 5.62 7.49Z" fill="#FFFFFF" fill-opacity="1.000000" fill-rule="nonzero"/>
		<path id="path" d="M5.62 14.96C5.62 15.08 5.63 15.2 5.66 15.33C5.68 15.45 5.72 15.56 5.76 15.68C5.81 15.79 5.87 15.9 5.94 16C6.01 16.1 6.08 16.2 6.17 16.29C6.26 16.37 6.35 16.45 6.45 16.52C6.56 16.59 6.66 16.64 6.78 16.69C6.89 16.74 7.01 16.77 7.13 16.8C7.25 16.82 7.37 16.83 7.5 16.83C7.62 16.83 7.74 16.82 7.86 16.8C7.98 16.77 8.1 16.74 8.21 16.69C8.33 16.64 8.44 16.59 8.54 16.52C8.64 16.45 8.73 16.37 8.82 16.29C8.91 16.2 8.99 16.1 9.06 16C9.12 15.9 9.18 15.79 9.23 15.68C9.28 15.56 9.31 15.45 9.33 15.33C9.36 15.2 9.37 15.08 9.37 14.96C9.37 14.84 9.36 14.71 9.33 14.59C9.31 14.47 9.28 14.36 9.23 14.24C9.18 14.13 9.12 14.02 9.06 13.92C8.99 13.82 8.91 13.72 8.82 13.63C8.73 13.55 8.64 13.47 8.54 13.4C8.44 13.33 8.33 13.27 8.21 13.23C8.1 13.18 7.98 13.14 7.86 13.12C7.74 13.1 7.62 13.08 7.5 13.08C7.37 13.08 7.25 13.1 7.13 13.12C7.01 13.14 6.89 13.18 6.78 13.23C6.66 13.27 6.56 13.33 6.45 13.4C6.35 13.47 6.26 13.55 6.17 13.63C6.08 13.72 6.01 13.82 5.94 13.92C5.87 14.02 5.81 14.13 5.76 14.24C5.72 14.36 5.68 14.47 5.66 14.59C5.63 14.71 5.62 14.84 5.62 14.96Z" fill="#FFFFFF" fill-opacity="1.000000" fill-rule="nonzero"/>
		<path id="path" d="M5.62 22.48C5.62 22.61 5.63 22.73 5.66 22.85C5.68 22.97 5.72 23.09 5.76 23.2C5.81 23.32 5.87 23.42 5.94 23.53C6.01 23.63 6.08 23.72 6.17 23.81C6.26 23.9 6.35 23.97 6.45 24.04C6.56 24.11 6.66 24.17 6.78 24.22C6.89 24.26 7.01 24.3 7.13 24.32C7.25 24.35 7.37 24.36 7.5 24.36C7.62 24.36 7.74 24.35 7.86 24.32C7.98 24.3 8.1 24.26 8.21 24.22C8.33 24.17 8.44 24.11 8.54 24.04C8.64 23.97 8.73 23.9 8.82 23.81C8.91 23.72 8.99 23.63 9.06 23.53C9.12 23.42 9.18 23.32 9.23 23.2C9.28 23.09 9.31 22.97 9.33 22.85C9.36 22.73 9.37 22.61 9.37 22.48C9.37 22.36 9.36 22.24 9.33 22.12C9.31 22 9.28 21.88 9.23 21.77C9.18 21.65 9.12 21.54 9.06 21.44C8.99 21.34 8.91 21.25 8.82 21.16C8.73 21.07 8.64 20.99 8.54 20.92C8.44 20.86 8.33 20.8 8.21 20.75C8.1 20.7 7.98 20.67 7.86 20.64C7.74 20.62 7.62 20.61 7.5 20.61C7.37 20.61 7.25 20.62 7.13 20.64C7.01 20.67 6.89 20.7 6.78 20.75C6.66 20.8 6.56 20.86 6.45 20.92C6.35 20.99 6.26 21.07 6.17 21.16C6.08 21.25 6.01 21.34 5.94 21.44C5.87 21.54 5.81 21.65 5.76 21.77C5.72 21.88 5.68 22 5.66 22.12C5.63 22.24 5.62 22.36 5.62 22.48Z" fill="#FFFFFF" fill-opacity="1.000000" fill-rule="nonzero"/>
	</g>
</svg>
